<svg xmlns="http://www.w3.org/2000/svg" xmlns:xlink="http://www.w3.org/1999/xlink" width="21" height="21" viewBox="0 0 21 21">
  <defs>
    <clipPath id="clip-ข้อมูลระบบ">
      <rect width="21" height="21"/>
    </clipPath>
  </defs>
  <g id="ข้อมูลระบบ" clip-path="url(#clip-ข้อมูลระบบ)">
    <g id="computer-screen" transform="translate(1 1)">
      <path id="Path_16792" data-name="Path 16792" d="M22.794,76.931v4.109a.824.824,0,0,1-.822.822H8.822A.824.824,0,0,1,8,81.041V72.822A.824.824,0,0,1,8.822,72h13.15a.824.824,0,0,1,.822.822v4.109Z" transform="translate(-7.589 -68.302)" fill="#76768e"/>
      <path id="Path_16793" data-name="Path 16793" d="M17.67,0h-7.4A1.234,1.234,0,0,0,9.041,1.233V3.288H1.233A1.234,1.234,0,0,0,0,4.52v8.219a1.234,1.234,0,0,0,1.233,1.233h4.52v1.644H5.342A2.057,2.057,0,0,0,3.288,17.67v.822A.411.411,0,0,0,3.7,18.9H17.67A1.234,1.234,0,0,0,18.9,17.67V1.233A1.234,1.234,0,0,0,17.67,0ZM15.54,4.109h2.541V5.753H15.616V4.52A1.219,1.219,0,0,0,15.54,4.109Zm.076,2.466h2.466V8.219H15.616ZM9.863,1.233a.411.411,0,0,1,.411-.411h7.4a.411.411,0,0,1,.411.411V3.288H9.863ZM.822,12.739V4.52a.411.411,0,0,1,.411-.411h13.15a.411.411,0,0,1,.411.411v8.219a.411.411,0,0,1-.411.411H1.233A.411.411,0,0,1,.822,12.739Zm5.753,1.233H9.041v1.644H6.575Zm-2.466,3.7a1.234,1.234,0,0,1,1.233-1.233h4.931a1.234,1.234,0,0,1,1.233,1.233v.411h-7.4Zm13.561.411H12.328V17.67a2.057,2.057,0,0,0-2.055-2.055H9.863V13.972h4.52a1.234,1.234,0,0,0,1.233-1.233v-3.7h2.466v8.63A.411.411,0,0,1,17.67,18.081Z" fill="#76768e"/>
    </g>
  </g>
</svg>
