<svg xmlns="http://www.w3.org/2000/svg" xmlns:xlink="http://www.w3.org/1999/xlink" width="18" height="18" viewBox="0 0 18 18">
  <defs>
    <clipPath id="clip-ขายสินค้า">
      <rect width="18" height="18"/>
    </clipPath>
  </defs>
  <g id="ขายสินค้า" clip-path="url(#clip-ขายสินค้า)">
    <g id="product" transform="translate(-42.289 -163)">
      <path id="Path_16791" data-name="Path 16791" d="M122.66,15.815h10.5a.875.875,0,0,0,.875-.875V4.377a.875.875,0,0,0-.875-.875h-2.626V2.626a2.626,2.626,0,1,0-5.252,0V3.5H122.66a.875.875,0,0,0-.875.875V14.94A.875.875,0,0,0,122.66,15.815Zm4.377-13.189a.875.875,0,0,1,1.751,0V3.5h-1.751Zm-3.5,2.626h1.751v.875a.875.875,0,1,0,1.751,0V5.252h1.751v.875a.875.875,0,1,0,1.751,0V5.252h1.751v8.812h-8.754Zm0,0" transform="translate(-76.495 164)" fill="#76768e"/>
    </g>
  </g>
</svg>
