<svg xmlns="http://www.w3.org/2000/svg" xmlns:xlink="http://www.w3.org/1999/xlink" width="18" height="18" viewBox="0 0 18 18">
  <defs>
    <clipPath id="clip-ผู้ใช้งาน">
      <rect width="18" height="18"/>
    </clipPath>
  </defs>
  <g id="ผู้ใช้งาน" clip-path="url(#clip-ผู้ใช้งาน)">
    <path id="Icon_awesome-user-alt" data-name="Icon awesome-user-alt" d="M6.92,7.785A3.892,3.892,0,1,0,3.027,3.892,3.893,3.893,0,0,0,6.92,7.785Zm3.46.865H8.89a4.705,4.705,0,0,1-3.941,0H3.46A3.46,3.46,0,0,0,0,12.11v.432a1.3,1.3,0,0,0,1.3,1.3H12.542a1.3,1.3,0,0,0,1.3-1.3V12.11A3.46,3.46,0,0,0,10.38,8.65Z" transform="translate(2 2.532)" fill="#76768e"/>
  </g>
</svg>
