<svg xmlns="http://www.w3.org/2000/svg" xmlns:xlink="http://www.w3.org/1999/xlink" width="18" height="18" viewBox="0 0 18 18">
  <defs>
    <clipPath id="clip-รายงาน">
      <rect width="18" height="18"/>
    </clipPath>
  </defs>
  <g id="รายงาน" clip-path="url(#clip-รายงาน)">
    <g id="statistics" transform="translate(2 2)">
      <path id="Path_14085" data-name="Path 14085" d="M32.234,6.584a1.228,1.228,0,0,0,.854-.347l1.218.609a1.209,1.209,0,0,0-.015.15,1.234,1.234,0,0,0,2.469,0,1.219,1.219,0,0,0-.124-.529l1.652-1.652a1.219,1.219,0,0,0,.529.124A1.236,1.236,0,0,0,40.052,3.7a1.216,1.216,0,0,0-.062-.366l1.436-1.076a1.234,1.234,0,1,0-.551-1.027,1.216,1.216,0,0,0,.062.366L39.5,2.677a1.229,1.229,0,0,0-1.794,1.556L36.055,5.884a1.213,1.213,0,0,0-1.383.223L33.454,5.5a1.209,1.209,0,0,0,.015-.15,1.234,1.234,0,1,0-1.234,1.234Zm0,0" transform="translate(-30.15 0)" fill="#76768e"/>
      <path id="Path_14086" data-name="Path 14086" d="M13.633,159.107h-.439v-8.7a.411.411,0,0,0-.411-.411H11.137a.411.411,0,0,0-.411.411v8.7H9.9V152.88a.411.411,0,0,0-.411-.411H7.845a.411.411,0,0,0-.411.411v6.227H6.611v-2.935a.411.411,0,0,0-.411-.411H4.554a.411.411,0,0,0-.411.411v2.935H3.319v-4.581a.411.411,0,0,0-.411-.411H1.262a.411.411,0,0,0-.411.411v4.581H.411a.411.411,0,1,0,0,.823H13.633a.411.411,0,1,0,0-.823Zm0,0" transform="translate(0 -145.885)" fill="#76768e"/>
    </g>
  </g>
</svg>
