<svg xmlns="http://www.w3.org/2000/svg" xmlns:xlink="http://www.w3.org/1999/xlink" width="23" height="23" viewBox="0 0 23 23">
  <defs>
    <clipPath id="clip-ลูกค้า">
      <rect width="23" height="23"/>
    </clipPath>
  </defs>
  <g id="ลูกค้า" clip-path="url(#clip-ลูกค้า)">
    <path id="Icon_awesome-user-tag" data-name="Icon awesome-user-tag" d="M20.535,11.883,17.594,8.945a2.085,2.085,0,0,0-1.475-.609H13.537a1.041,1.041,0,0,0-1.042,1.042v2.579a2.077,2.077,0,0,0,.609,1.472l2.941,2.937a1.044,1.044,0,0,0,1.475,0l3.012-3.012a1.037,1.037,0,0,0,0-1.472ZM14.582,11.2a.782.782,0,1,1,.782-.782A.78.78,0,0,1,14.582,11.2ZM7.294,8.333A4.167,4.167,0,1,0,3.126,4.168,4.168,4.168,0,0,0,7.294,8.333Zm4.162,3.621V9.574a4.381,4.381,0,0,0-1.244-.2H9.668a5.669,5.669,0,0,1-4.748,0H4.377A4.383,4.383,0,0,0,0,13.752v1.355A1.563,1.563,0,0,0,1.563,16.67H13.026a1.556,1.556,0,0,0,1.234-.615l-1.889-1.889a3.106,3.106,0,0,1-.915-2.211Z" transform="translate(1 0.38)" fill="#76768e"/>
  </g>
</svg>
