<svg xmlns="http://www.w3.org/2000/svg" xmlns:xlink="http://www.w3.org/1999/xlink" width="18" height="18" viewBox="0 0 18 18">
  <defs>
    <clipPath id="clip-เงินสดในร้าน">
      <rect width="18" height="18"/>
    </clipPath>
  </defs>
  <g id="เงินสดในร้าน" clip-path="url(#clip-เงินสดในร้าน)">
    <path id="Icon_awesome-credit-card" data-name="Icon awesome-credit-card" d="M0,198.986a1.334,1.334,0,0,0,1.333,1.333H14.667A1.334,1.334,0,0,0,16,198.986V194.1H0ZM5.333,197.1a.334.334,0,0,1,.333-.333H9.444a.334.334,0,0,1,.333.333v1.111a.334.334,0,0,1-.333.333H5.667a.334.334,0,0,1-.333-.333Zm-3.556,0a.334.334,0,0,1,.333-.333h2a.334.334,0,0,1,.333.333v1.111a.334.334,0,0,1-.333.333h-2a.334.334,0,0,1-.333-.333ZM16,189.208v1.333H0v-1.333a1.334,1.334,0,0,1,1.333-1.333H14.667A1.334,1.334,0,0,1,16,189.208Z" transform="translate(1 -184.875)" fill="#76768e"/>
  </g>
</svg>
