<svg xmlns="http://www.w3.org/2000/svg" xmlns:xlink="http://www.w3.org/1999/xlink" width="97" height="97" viewBox="0 0 97 97">
  <defs>
    <clipPath id="clip-Artboard_1">
      <rect width="97" height="97"/>
    </clipPath>
  </defs>
  <g id="Artboard_1" data-name="Artboard – 1" clip-path="url(#clip-Artboard_1)">
    <g id="Icon_ionic-ios-cart" data-name="Icon ionic-ios-cart" transform="translate(-0.436 6.75)">
      <path id="Path_16817" data-name="Path 16817" d="M20.029,33.358A5.233,5.233,0,1,1,14.8,28.125,5.233,5.233,0,0,1,20.029,33.358Z" transform="translate(12.987 49.659)" fill="#fff"/>
      <path id="Path_16818" data-name="Path 16818" d="M35.815,33.358a5.233,5.233,0,1,1-5.233-5.233,5.233,5.233,0,0,1,5.233,5.233Z" transform="translate(46.157 49.659)" fill="#fff"/>
      <path id="Path_16819" data-name="Path 16819" d="M94.03,19.387a1.282,1.282,0,0,0-1.134-.916L21.874,11.6a2.186,2.186,0,0,1-1.635-1.025,22.2,22.2,0,0,0-2.66-4.056C15.9,4.471,12.737,4.537,6.936,4.493,4.974,4.471,3.382,5.627,3.382,7.568a3.117,3.117,0,0,0,3.4,3.075,28.973,28.973,0,0,1,5.67.414c1.025.305,1.854,1.984,2.159,3.445a.08.08,0,0,0,.022.065c.044.262.436,2.224.436,2.246l8.722,46.142a16.958,16.958,0,0,0,3.162,7.785,8.7,8.7,0,0,0,7.174,3.533H85.722a3.1,3.1,0,0,0,3.14-2.922,3.038,3.038,0,0,0-3.053-3.184H34.085a2.534,2.534,0,0,1-1.81-.611c-.763-.654-1.81-2.159-2.508-5.67l-.938-5.168a.12.12,0,0,1,.087-.131L89.473,46.339a1.274,1.274,0,0,0,1.068-1.134L94.03,19.954A1.244,1.244,0,0,0,94.03,19.387Z" transform="translate(0 0)" fill="#fff"/>
    </g>
  </g>
</svg>
