<svg xmlns="http://www.w3.org/2000/svg" xmlns:xlink="http://www.w3.org/1999/xlink" width="97" height="97" viewBox="0 0 97 97">
  <defs>
    <clipPath id="clip-Artboard_2">
      <rect width="97" height="97"/>
    </clipPath>
  </defs>
  <g id="Artboard_2" data-name="Artboard – 2" clip-path="url(#clip-Artboard_2)">
    <g id="statistics" transform="translate(5 5)">
      <path id="Path_14085" data-name="Path 14085" d="M38.559,40.313a7.521,7.521,0,0,0,5.232-2.125l7.458,3.729a7.406,7.406,0,0,0-.092.916,7.559,7.559,0,1,0,15.117,0,7.467,7.467,0,0,0-.758-3.238L75.633,29.477a7.467,7.467,0,0,0,3.238.758,7.567,7.567,0,0,0,7.559-7.559,7.446,7.446,0,0,0-.377-2.239l8.791-6.591a7.553,7.553,0,1,0-3.374-6.287A7.445,7.445,0,0,0,91.846,9.8l-8.791,6.591A7.526,7.526,0,0,0,72.07,25.914L61.953,36.031a7.427,7.427,0,0,0-8.47,1.367L46.025,33.67a7.4,7.4,0,0,0,.093-.916,7.559,7.559,0,1,0-7.559,7.559Zm0,0" transform="translate(-25.793 0)" fill="#fff"/>
      <path id="Path_14086" data-name="Path 14086" d="M83.48,205.766H80.793V152.519A2.518,2.518,0,0,0,78.273,150H68.2a2.518,2.518,0,0,0-2.52,2.519v53.246H60.637V167.637a2.518,2.518,0,0,0-2.52-2.519H48.039a2.518,2.518,0,0,0-2.52,2.519v38.129H40.48V187.793a2.518,2.518,0,0,0-2.52-2.519H27.883a2.518,2.518,0,0,0-2.52,2.519v17.973H20.324V177.715A2.518,2.518,0,0,0,17.8,175.2H7.727a2.518,2.518,0,0,0-2.52,2.519v28.051H2.52a2.52,2.52,0,1,0,0,5.039H83.48a2.52,2.52,0,1,0,0-5.039Zm0,0" transform="translate(0 -124.805)" fill="#fff"/>
    </g>
  </g>
</svg>
