<svg xmlns="http://www.w3.org/2000/svg" width="73.998" height="54.934" viewBox="0 0 73.998 54.934">
  <g id="Group_9493" data-name="Group 9493" transform="translate(-336.482 -243.501)">
    <g id="Group_47" data-name="Group 47" transform="translate(336.482 243.581)">
      <g id="Group_46" data-name="Group 46">
        <path id="Path_3" data-name="Path 3" d="M371.949,253.49l-9.44-8.715-1.2-1.2-24.823,24.823,6.123,6.123,18.9-18.9,4.3,3.958Z" transform="translate(-336.482 -243.572)" fill="#ae0b1b"/>
      </g>
    </g>
    <g id="Group_49" data-name="Group 49" transform="translate(375.1 247.161)">
      <g id="Group_48" data-name="Group 48">
        <path id="Path_4" data-name="Path 4" d="M382.277,276.359l23.516-23.516-6.123-6.123-18.828,18.828-4.255-3.934-6.128,6.131,7.759,7.169,2.752,2.752.109-.109.049.045Z" transform="translate(-370.459 -246.721)" fill="#ae0b1b"/>
      </g>
    </g>
    <g id="Group_51" data-name="Group 51" transform="translate(352.209 243.501)">
      <g id="Group_50" data-name="Group 50">
        <path id="Path_5" data-name="Path 5" d="M393.281,253.509l-7.857-7.266-2.741-2.741-22.2,22.2-3.96-3.96-6.2,6.2,10.163,10.163,3.257-3.257h0l19.076-19.076,4.254,3.933Z" transform="translate(-350.318 -243.501)" fill="#ae0b1b"/>
      </g>
    </g>
    <g id="Group_53" data-name="Group 53" transform="translate(336.562 283.167)">
      <g id="Group_52" data-name="Group 52">
        <path id="Path_6" data-name="Path 6" d="M346.729,287.06a5.823,5.823,0,0,1-3.829,1.118h-3.178v5.49h-3.17V278.4h6.555a5.286,5.286,0,0,1,3.614,1.182,4.607,4.607,0,0,1,1.348,3.655Q348.069,285.941,346.729,287.06Zm-2.436-5.5a2.563,2.563,0,0,0-1.7-.508h-2.874v4.5H342.6a2.435,2.435,0,0,0,1.7-.549,2.238,2.238,0,0,0,.607-1.74A2.1,2.1,0,0,0,344.293,281.56Z" transform="translate(-336.552 -278.4)" fill="#ae0b1b"/>
      </g>
    </g>
    <g id="Group_55" data-name="Group 55" transform="translate(348.16 295.338)">
      <g id="Group_54" data-name="Group 54">
        <path id="Path_7" data-name="Path 7" d="M346.756,289.108H349.9v3.1h-3.139Z" transform="translate(-346.756 -289.108)" fill="#ae0b1b"/>
      </g>
    </g>
    <g id="Group_57" data-name="Group 57" transform="translate(371.502 295.338)">
      <g id="Group_56" data-name="Group 56">
        <path id="Path_8" data-name="Path 8" d="M367.293,289.108h3.139v3.1h-3.139Z" transform="translate(-367.293 -289.108)" fill="#ae0b1b"/>
      </g>
    </g>
    <g id="Group_59" data-name="Group 59" transform="translate(373.755 283.167)">
      <g id="Group_58" data-name="Group 58">
        <path id="Path_9" data-name="Path 9" d="M381.641,278.4v2.7h-4.568v12.564h-3.211V281.1h-4.587v-2.7Z" transform="translate(-369.275 -278.4)" fill="#ae0b1b"/>
      </g>
    </g>
    <g id="Group_61" data-name="Group 61" transform="translate(385.217 295.338)">
      <g id="Group_60" data-name="Group 60">
        <path id="Path_10" data-name="Path 10" d="M379.36,289.108H382.5v3.1H379.36Z" transform="translate(-379.36 -289.108)" fill="#ae0b1b"/>
      </g>
    </g>
    <g id="Group_63" data-name="Group 63" transform="translate(407.341 295.338)">
      <g id="Group_62" data-name="Group 62">
        <path id="Path_11" data-name="Path 11" d="M398.825,289.108h3.138v3.1h-3.138Z" transform="translate(-398.825 -289.108)" fill="#ae0b1b"/>
      </g>
    </g>
    <g id="Group_65" data-name="Group 65" transform="translate(368.025 252.083)">
      <g id="Group_64" data-name="Group 64">
        <path id="Path_12" data-name="Path 12" d="M364.234,251.052" transform="translate(-364.234 -251.052)" fill="none" stroke="#1a1818" stroke-miterlimit="10" stroke-width="0.25"/>
      </g>
    </g>
    <g id="Group_67" data-name="Group 67" transform="translate(349.911 270.199)">
      <g id="Group_66" data-name="Group 66">
        <path id="Path_13" data-name="Path 13" d="M348.3,266.99" transform="translate(-348.297 -266.99)" fill="none" stroke="#1a1818" stroke-miterlimit="10" stroke-width="0.25"/>
      </g>
    </g>
    <g id="Group_69" data-name="Group 69" transform="translate(403.949 244.932)">
      <g id="Group_68" data-name="Group 68">
        <path id="Path_14" data-name="Path 14" d="M395.84,244.76" transform="translate(-395.84 -244.76)" fill="none" stroke="#1a1818" stroke-miterlimit="10" stroke-width="0.25"/>
      </g>
    </g>
    <g id="Group_71" data-name="Group 71" transform="translate(385.835 263.047)">
      <g id="Group_70" data-name="Group 70">
        <path id="Path_15" data-name="Path 15" d="M379.9,260.7" transform="translate(-379.903 -260.698)" fill="none" stroke="#1a1818" stroke-miterlimit="10" stroke-width="0.25"/>
      </g>
    </g>
    <g id="Group_73" data-name="Group 73" transform="translate(391 252.083)">
      <g id="Group_72" data-name="Group 72">
        <path id="Path_16" data-name="Path 16" d="M384.448,251.052" transform="translate(-384.448 -251.052)" fill="none" stroke="#1a1818" stroke-miterlimit="10" stroke-width="0.25"/>
      </g>
    </g>
    <g id="Group_75" data-name="Group 75" transform="translate(372.886 270.199)">
      <g id="Group_74" data-name="Group 74">
        <path id="Path_17" data-name="Path 17" d="M368.511,266.99" transform="translate(-368.511 -266.99)" fill="none" stroke="#1a1818" stroke-miterlimit="10" stroke-width="0.25"/>
      </g>
    </g>
    <path id="Path_18" data-name="Path 18" d="M356.345,290.529h0l.867-2.631h0l1.982-6.007,3.793,11.776h3.447l-5.4-15.267h-3.609l-5.45,15.267h3.337Z" transform="translate(2.116 4.767)" fill="#ae0b1b"/>
    <path id="Path_19" data-name="Path 19" d="M389.192,290.529h0l.867-2.631h0l1.982-6.007,3.793,11.776h3.447l-5.4-15.267H390.27l-5.45,15.267h3.337Z" transform="translate(6.603 4.767)" fill="#ae0b1b"/>
  </g>
</svg>
